<svg width="32" height="32" viewBox="0 0 32 32" fill="none" xmlns="http://www.w3.org/2000/svg">
<g clip-path="url(#clip0_64_5)">
<rect width="32" height="32" rx="6.05469" fill="#1C1C18"/>
<path d="M19.5219 14.1913L23.1767 10.5469L15.6081 3L8.03955 10.5469L14.5215 17.0104L14.529 17.003L18.7911 21.2529L15.5688 24.4662L12.3465 21.2529L13.8283 19.7754L13.0521 19.0016L10.7943 21.2529L15.5688 26.0138L20.3435 21.2529L15.305 16.229L15.2977 16.2364L9.59178 10.5469L15.6081 4.54764L21.6245 10.5469L18.7457 13.4174" fill="white"/>
<path d="M11.6548 17.6086L8 21.253L15.5686 28.8001L23.1373 21.253L16.6552 14.7896L16.6477 14.797L12.3856 10.547L15.6079 7.33393L18.8302 10.547L17.3485 12.0242L18.1246 12.7984L20.3824 10.547L15.6079 5.78613L10.8334 10.547L15.8717 15.5708L15.8791 15.5635L21.5849 21.253L15.5686 27.2523L9.55238 21.253L12.431 18.3826" fill="white"/>
</g>
<defs>
<clipPath id="clip0_64_5">
<rect width="32" height="32" fill="white"/>
</clipPath>
</defs>
</svg>
