<svg width="75" height="29" viewBox="0 0 75 29" fill="none" xmlns="http://www.w3.org/2000/svg">
<path d="M6.54 19.16C4.76667 19.16 3.34667 18.8267 2.28 18.16C1.21333 17.48 0.68 16.4467 0.68 15.06C0.68 14.3267 0.806667 13.7667 1.06 13.38C1.31333 12.9933 1.68667 12.8 2.18 12.8C2.54 12.8 2.83333 12.8933 3.06 13.08C3.28667 13.2667 3.4 13.5067 3.4 13.8C3.4 14.0667 3.38 14.3 3.34 14.5C3.34 14.5533 3.32667 14.6467 3.3 14.78C3.28667 14.9133 3.28 15.0533 3.28 15.2C3.28 15.8 3.58 16.2467 4.18 16.54C4.79333 16.8333 5.64667 16.98 6.74 16.98C7.87333 16.98 8.76 16.78 9.4 16.38C10.04 15.9667 10.36 15.3933 10.36 14.66C10.36 14.2067 10.2133 13.82 9.92 13.5C9.62667 13.1667 9.26 12.8933 8.82 12.68C8.38 12.4533 7.76 12.18 6.96 11.86C5.93333 11.46 5.09333 11.08 4.44 10.72C3.8 10.36 3.24667 9.87333 2.78 9.26C2.32667 8.63333 2.1 7.86 2.1 6.94C2.1 5.98 2.35333 5.12667 2.86 4.38C3.38 3.63333 4.12 3.05333 5.08 2.64C6.05333 2.22667 7.19333 2.02 8.5 2.02C9.47333 2.02 10.3667 2.16667 11.18 2.46C11.9933 2.74 12.64 3.17333 13.12 3.76C13.6133 4.34667 13.86 5.06667 13.86 5.92C13.86 6.76 13.7333 7.39333 13.48 7.82C13.2267 8.24667 12.8533 8.46 12.36 8.46C12.0133 8.46 11.72 8.35333 11.48 8.14C11.2533 7.92667 11.14 7.67333 11.14 7.38C11.14 7.12667 11.16 6.89333 11.2 6.68C11.24 6.28 11.26 6.02667 11.26 5.92C11.26 5.36 10.9867 4.93333 10.44 4.64C9.89333 4.34667 9.21333 4.2 8.4 4.2C7.25333 4.2 6.37333 4.41333 5.76 4.84C5.16 5.25333 4.86 5.84 4.86 6.6C4.86 7.10667 5.01333 7.54 5.32 7.9C5.64 8.26 6.03333 8.56 6.5 8.8C6.96667 9.04 7.62 9.32667 8.46 9.66C9.47333 10.0733 10.2867 10.4467 10.9 10.78C11.5133 11.1133 12.0333 11.5667 12.46 12.14C12.9 12.7133 13.12 13.42 13.12 14.26C13.12 15.8333 12.52 17.0467 11.32 17.9C10.1333 18.74 8.54 19.16 6.54 19.16ZM25.7319 14.54C25.9052 14.54 26.0385 14.62 26.1319 14.78C26.2385 14.94 26.2919 15.16 26.2919 15.44C26.2919 15.9733 26.1652 16.3867 25.9119 16.68C25.2985 17.3867 24.6652 17.9667 24.0119 18.42C23.3719 18.8733 22.6385 19.1 21.8119 19.1C21.1319 19.1 20.6185 18.9067 20.2719 18.52C19.9252 18.12 19.7519 17.5467 19.7519 16.8C19.7519 16.4267 19.8452 15.76 20.0319 14.8C20.2052 13.96 20.2919 13.38 20.2919 13.06C20.2919 12.8467 20.2185 12.74 20.0719 12.74C19.8985 12.74 19.6519 12.9667 19.3319 13.42C19.0119 13.86 18.6919 14.4467 18.3719 15.18C18.0519 15.9133 17.7919 16.6867 17.5919 17.5C17.3385 18.5667 16.7119 19.1 15.7119 19.1C15.3119 19.1 15.0452 18.96 14.9119 18.68C14.7919 18.3867 14.7319 17.8667 14.7319 17.12C14.7319 16.6933 14.7385 16.3533 14.7519 16.1L14.7719 14.5C14.7719 12.4467 14.9785 10.3067 15.3919 8.08C15.8185 5.85333 16.4385 3.98667 17.2519 2.48C18.0785 0.959999 19.0652 0.199999 20.2119 0.199999C20.8252 0.199999 21.3185 0.466666 21.6919 0.999999C22.0785 1.52 22.2719 2.2 22.2719 3.04C22.2719 4.38667 21.8785 5.78667 21.0919 7.24C20.3052 8.68 19.0252 10.3667 17.2519 12.3C17.2119 12.9933 17.1919 13.7067 17.1919 14.44C17.6319 13.3067 18.1185 12.3867 18.6519 11.68C19.1985 10.96 19.7319 10.4467 20.2519 10.14C20.7852 9.83333 21.2719 9.68 21.7119 9.68C22.5785 9.68 23.0119 10.1133 23.0119 10.98C23.0119 11.5 22.8652 12.44 22.5719 13.8C22.3185 14.96 22.1919 15.7267 22.1919 16.1C22.1919 16.6333 22.3852 16.9 22.7719 16.9C23.0385 16.9 23.3519 16.74 23.7119 16.42C24.0852 16.0867 24.5785 15.5533 25.1919 14.82C25.3519 14.6333 25.5319 14.54 25.7319 14.54ZM19.7919 2.18C19.5519 2.18 19.2852 2.52667 18.9919 3.22C18.6985 3.9 18.4119 4.82667 18.1319 6C17.8652 7.16 17.6452 8.42667 17.4719 9.8C18.2985 8.82667 18.9785 7.76667 19.5119 6.62C20.0585 5.47333 20.3319 4.43333 20.3319 3.5C20.3319 3.07333 20.2852 2.74667 20.1919 2.52C20.0985 2.29333 19.9652 2.18 19.7919 2.18ZM34.8709 12.86C35.0443 12.86 35.1776 12.9467 35.2709 13.12C35.3643 13.2933 35.4109 13.5133 35.4109 13.78C35.4109 14.42 35.2176 14.8 34.8309 14.92C34.0309 15.2 33.1509 15.36 32.1909 15.4C31.9376 16.52 31.4376 17.42 30.6909 18.1C29.9443 18.7667 29.0976 19.1 28.1509 19.1C27.3509 19.1 26.6643 18.9067 26.0909 18.52C25.5309 18.1333 25.1043 17.62 24.8109 16.98C24.5176 16.34 24.3709 15.6467 24.3709 14.9C24.3709 13.8867 24.5643 12.9867 24.9509 12.2C25.3376 11.4 25.8709 10.78 26.5509 10.34C27.2309 9.88667 27.9843 9.66 28.8109 9.66C29.8243 9.66 30.6376 10.0133 31.2509 10.72C31.8776 11.4133 32.2443 12.2733 32.3509 13.3C32.9776 13.26 33.7243 13.1267 34.5909 12.9C34.6976 12.8733 34.7909 12.86 34.8709 12.86ZM28.3109 16.98C28.7376 16.98 29.1043 16.8067 29.4109 16.46C29.7309 16.1133 29.9443 15.6133 30.0509 14.96C29.6376 14.68 29.3176 14.3133 29.0909 13.86C28.8776 13.4067 28.7709 12.9267 28.7709 12.42C28.7709 12.2067 28.7909 11.9933 28.8309 11.78H28.7309C28.1976 11.78 27.7509 12.04 27.3909 12.56C27.0443 13.0667 26.8709 13.7867 26.8709 14.72C26.8709 15.4533 27.0109 16.0133 27.2909 16.4C27.5843 16.7867 27.9243 16.98 28.3109 16.98ZM44.3744 14.54C44.5477 14.54 44.681 14.62 44.7744 14.78C44.881 14.94 44.9344 15.16 44.9344 15.44C44.9344 15.9733 44.8077 16.3867 44.5544 16.68C43.981 17.3867 43.361 17.9667 42.6944 18.42C42.041 18.8733 41.2944 19.1 40.4544 19.1C39.7477 19.1 39.1744 18.8467 38.7344 18.34C37.9744 18.8333 37.181 19.0867 36.3544 19.1C36.181 21.6733 35.7877 23.82 35.1744 25.54C34.561 27.2733 33.661 28.14 32.4744 28.14C31.7544 28.14 31.221 27.88 30.8744 27.36C30.5277 26.84 30.3544 26.12 30.3544 25.2C30.3544 23.8933 30.6544 22.3667 31.2544 20.62C31.8544 18.8867 32.781 16.9733 34.0344 14.88C34.0344 12.9333 34.021 11.58 33.9944 10.82C33.981 10.4333 34.1344 10.1267 34.4544 9.9C34.7744 9.67333 35.1744 9.56 35.6544 9.56C35.9344 9.56 36.1344 9.62 36.2544 9.74C36.3877 9.84667 36.461 10.0667 36.4744 10.4C36.4744 10.7333 36.481 10.98 36.4944 11.14C36.921 10.6067 37.341 10.2267 37.7544 10C38.1677 9.76 38.6077 9.64 39.0744 9.64C39.821 9.64 40.4277 9.94 40.8944 10.54C41.3744 11.14 41.6144 11.9267 41.6144 12.9C41.6144 13.6067 41.501 14.2933 41.2744 14.96C41.0477 15.6267 40.7344 16.2333 40.3344 16.78C40.6144 16.86 40.8477 16.9 41.0344 16.9C41.4744 16.9 41.8944 16.74 42.2944 16.42C42.6944 16.1 43.2077 15.5667 43.8344 14.82C43.9944 14.6333 44.1744 14.54 44.3744 14.54ZM36.4544 17.18C36.9344 17.0733 37.3744 16.8133 37.7744 16.4C38.1877 15.9733 38.5144 15.4533 38.7544 14.84C38.9944 14.2133 39.1144 13.56 39.1144 12.88C39.1144 12.48 39.0344 12.18 38.8744 11.98C38.7144 11.7667 38.501 11.66 38.2344 11.66C37.7544 11.66 37.1744 12.1667 36.4944 13.18C36.481 13.7667 36.4744 14.6267 36.4744 15.76C36.4744 16.3733 36.4677 16.8467 36.4544 17.18ZM32.6344 26.18C32.9944 26.18 33.2944 25.3933 33.5344 23.82C33.7744 22.26 33.9277 20.3133 33.9944 17.98C33.421 19.3133 32.9677 20.5867 32.6344 21.8C32.301 23.0133 32.1344 24.0333 32.1344 24.86C32.1344 25.2867 32.1877 25.6133 32.2944 25.84C32.3877 26.0667 32.501 26.18 32.6344 26.18ZM52.2433 14.54C52.4166 14.54 52.5499 14.62 52.6433 14.78C52.7499 14.94 52.8033 15.16 52.8033 15.44C52.8033 15.9733 52.6766 16.3867 52.4233 16.68C51.8499 17.3867 51.2233 17.9667 50.5433 18.42C49.8633 18.8733 49.0833 19.1 48.2033 19.1C45.4833 19.1 44.1233 17.1867 44.1233 13.36C44.1233 12.7733 44.1433 12.18 44.1833 11.58H43.4033C43.0033 11.58 42.7299 11.5067 42.5833 11.36C42.4499 11.2133 42.3833 10.98 42.3833 10.66C42.3833 9.91333 42.6833 9.54 43.2833 9.54H44.4233C44.6499 8.07333 44.9966 6.73333 45.4633 5.52C45.9299 4.30667 46.4899 3.34 47.1433 2.62C47.8099 1.9 48.5233 1.54 49.2833 1.54C49.8433 1.54 50.2833 1.78667 50.6033 2.28C50.9233 2.77333 51.0833 3.39333 51.0833 4.14C51.0833 6.20667 50.2166 8.00667 48.4833 9.54H50.7233C50.9366 9.54 51.0899 9.58667 51.1833 9.68C51.2766 9.77333 51.3233 9.94667 51.3233 10.2C51.3233 11.12 50.5699 11.58 49.0633 11.58H46.6233C46.5966 12.2467 46.5833 12.7667 46.5833 13.14C46.5833 14.5267 46.7433 15.5 47.0633 16.06C47.3966 16.62 47.9166 16.9 48.6233 16.9C49.1966 16.9 49.7033 16.7267 50.1433 16.38C50.5833 16.0333 51.1033 15.5133 51.7033 14.82C51.8633 14.6333 52.0433 14.54 52.2433 14.54ZM48.7433 3.46C48.5433 3.46 48.3166 3.71333 48.0633 4.22C47.8233 4.71333 47.5899 5.40667 47.3633 6.3C47.1499 7.18 46.9699 8.16 46.8233 9.24C47.6099 8.56 48.1966 7.8 48.5833 6.96C48.9833 6.10667 49.1833 5.33333 49.1833 4.64C49.1833 3.85333 49.0366 3.46 48.7433 3.46ZM53.7948 8.36C53.2348 8.36 52.8148 8.23333 52.5348 7.98C52.2548 7.71333 52.1148 7.34667 52.1148 6.88C52.1148 6.41333 52.2948 6.02667 52.6548 5.72C53.0282 5.4 53.4882 5.24 54.0348 5.24C54.5282 5.24 54.9282 5.36 55.2348 5.6C55.5415 5.84 55.6948 6.18 55.6948 6.62C55.6948 7.15333 55.5215 7.58 55.1748 7.9C54.8282 8.20667 54.3682 8.36 53.7948 8.36ZM53.6348 19.1C52.7682 19.1 52.1348 18.7933 51.7348 18.18C51.3482 17.5667 51.1548 16.7533 51.1548 15.74C51.1548 15.14 51.2282 14.3733 51.3748 13.44C51.5348 12.4933 51.7348 11.6133 51.9748 10.8C52.0948 10.3733 52.2548 10.08 52.4548 9.92C52.6548 9.76 52.9748 9.68 53.4148 9.68C54.0948 9.68 54.4348 9.90667 54.4348 10.36C54.4348 10.6933 54.3082 11.4667 54.0548 12.68C53.7348 14.1467 53.5748 15.14 53.5748 15.66C53.5748 16.06 53.6282 16.3667 53.7348 16.58C53.8415 16.7933 54.0215 16.9 54.2748 16.9C54.5148 16.9 54.8148 16.7333 55.1748 16.4C55.5348 16.0667 56.0148 15.54 56.6148 14.82C56.7748 14.6333 56.9548 14.54 57.1548 14.54C57.3282 14.54 57.4615 14.62 57.5548 14.78C57.6615 14.94 57.7148 15.16 57.7148 15.44C57.7148 15.9733 57.5882 16.3867 57.3348 16.68C56.0148 18.2933 54.7815 19.1 53.6348 19.1ZM67.4567 14.54C67.6301 14.54 67.7634 14.62 67.8567 14.78C67.9634 14.94 68.0167 15.16 68.0167 15.44C68.0167 15.9733 67.8901 16.3867 67.6367 16.68C67.0901 17.3467 66.4901 17.92 65.8367 18.4C65.1834 18.8667 64.5367 19.1 63.8967 19.1C62.8834 19.1 62.1101 18.5067 61.5767 17.32C61.0167 18.0267 60.5234 18.5 60.0967 18.74C59.6834 18.98 59.1967 19.1 58.6367 19.1C57.8234 19.1 57.1501 18.8 56.6167 18.2C56.0967 17.5867 55.8367 16.7933 55.8367 15.82C55.8367 14.7533 56.0634 13.7667 56.5167 12.86C56.9701 11.94 57.5901 11.1933 58.3767 10.62C59.1767 10.0333 60.0701 9.68667 61.0567 9.58C61.3101 6.99333 61.7901 4.78667 62.4967 2.96C63.2167 1.12 64.1567 0.199999 65.3167 0.199999C65.8901 0.199999 66.3634 0.459999 66.7367 0.98C67.1234 1.5 67.3167 2.28667 67.3167 3.34C67.3167 4.83333 66.9501 6.58 66.2167 8.58C65.4834 10.58 64.5034 12.6333 63.2767 14.74C63.3301 15.5133 63.4434 16.0667 63.6167 16.4C63.8034 16.7333 64.0367 16.9 64.3167 16.9C64.6767 16.9 65.0434 16.74 65.4167 16.42C65.7901 16.1 66.2901 15.5667 66.9167 14.82C67.0767 14.6333 67.2567 14.54 67.4567 14.54ZM65.0967 2.16C64.8434 2.16 64.5901 2.61333 64.3367 3.52C64.0834 4.41333 63.8634 5.58667 63.6767 7.04C63.5034 8.49333 63.3767 10.0133 63.2967 11.6C64.7901 8.34667 65.5367 5.73333 65.5367 3.76C65.5367 3.25333 65.4901 2.86 65.3967 2.58C65.3167 2.3 65.2167 2.16 65.0967 2.16ZM59.3367 17.08C59.5901 17.08 59.8434 16.98 60.0967 16.78C60.3501 16.5667 60.6701 16.18 61.0567 15.62C60.9234 14.9 60.8567 14.0933 60.8567 13.2C60.8567 12.88 60.8701 12.36 60.8967 11.64C60.1634 11.8667 59.5501 12.36 59.0567 13.12C58.5767 13.8667 58.3367 14.7 58.3367 15.62C58.3367 16.5933 58.6701 17.08 59.3367 17.08ZM73.3897 9.68C73.6964 9.68 73.9097 9.72 74.0297 9.8C74.1497 9.88 74.2097 10.0133 74.2097 10.2C74.2097 10.52 74.0364 11.66 73.6897 13.62C73.383 15.5 73.203 16.6133 73.1497 16.96C72.6564 20.3867 71.9764 23.1 71.1097 25.1C70.243 27.1 69.0897 28.1 67.6497 28.1C66.9697 28.1 66.4164 27.8867 65.9897 27.46C65.563 27.0467 65.3497 26.5 65.3497 25.82C65.3497 25.1933 65.4897 24.5533 65.7697 23.9C66.063 23.2467 66.5964 22.4933 67.3697 21.64C68.1564 20.8 69.263 19.8333 70.6897 18.74L70.7497 18.28C70.843 17.7867 70.9497 17.08 71.0697 16.16C70.803 17.12 70.4297 17.8533 69.9497 18.36C69.4697 18.8533 68.963 19.1 68.4297 19.1C67.8297 19.1 67.3364 18.8267 66.9497 18.28C66.5764 17.72 66.3897 17.0267 66.3897 16.2C66.3897 15.2 66.4564 14.2867 66.5897 13.46C66.723 12.62 66.943 11.7333 67.2497 10.8C67.383 10.4 67.5697 10.1133 67.8097 9.94C68.0497 9.76667 68.4297 9.68 68.9497 9.68C69.243 9.68 69.443 9.72667 69.5497 9.82C69.6697 9.91333 69.7297 10.0533 69.7297 10.24C69.7297 10.3467 69.6564 10.7067 69.5097 11.32C69.3764 11.8133 69.2697 12.26 69.1897 12.66C69.083 13.2067 68.9897 13.7333 68.9097 14.24C68.8297 14.7333 68.7897 15.14 68.7897 15.46C68.7897 15.9667 68.9297 16.22 69.2097 16.22C69.4097 16.22 69.6564 16.02 69.9497 15.62C70.2564 15.22 70.5764 14.6133 70.9097 13.8C71.2564 12.9867 71.5897 11.9867 71.9097 10.8C72.0164 10.4 72.1764 10.1133 72.3897 9.94C72.6164 9.76667 72.9497 9.68 73.3897 9.68ZM67.8697 26.16C68.203 26.16 68.5764 25.7733 68.9897 25C69.403 24.2267 69.8164 22.94 70.2297 21.14C69.203 22.0067 68.4564 22.7933 67.9897 23.5C67.5364 24.22 67.3097 24.8467 67.3097 25.38C67.3097 25.6067 67.3497 25.7933 67.4297 25.94C67.523 26.0867 67.6697 26.16 67.8697 26.16Z" fill="white"/>
</svg>
