<svg width="100" height="170" viewBox="0 0 100 170" fill="none" xmlns="http://www.w3.org/2000/svg">
<path d="M75.9177 73.7412L99.9999 49.7279L50.1294 0L0.259033 49.7279L42.9697 92.3165L43.0187 92.2675L71.1025 120.271L49.8703 141.444L28.638 120.271L38.4016 110.535L33.2872 105.437L18.4102 120.271L49.8703 151.641L81.3313 120.271L48.1321 87.1677L48.0841 87.2166L10.4869 49.7279L50.1294 10.1976L89.772 49.7279L70.8033 68.6414" fill="white"/>
<path d="M24.0821 96.2578L0 120.271L49.8704 170L99.7418 120.271L57.0302 77.6825L56.9812 77.7314L28.8974 49.7279L50.1296 28.5564L71.3618 49.7279L61.5983 59.4615L66.7127 64.5623L81.5897 49.7279L50.1296 18.3577L18.6695 49.7279L51.8677 82.8302L51.9168 82.7824L89.513 120.271L49.8704 159.801L10.2289 120.271L29.1966 101.358" fill="white"/>
</svg>
